<mxfile host="app.diagrams.net" modified="2023-08-22T03:06:45.749Z" agent="Mozilla/5.0 (X11; Linux x86_64; rv:109.0) Gecko/20100101 Firefox/116.0" etag="283abtyysw-qd00adG1h" version="21.6.8" type="github">
  <diagram name="Page-1" id="58cdce13-f638-feb5-8d6f-7d28b1aa9fa0">
    <mxGraphModel dx="2074" dy="1122" grid="1" gridSize="10" guides="1" tooltips="1" connect="1" arrows="1" fold="1" page="1" pageScale="1" pageWidth="1100" pageHeight="850" background="none" math="0" shadow="0">
      <root>
        <mxCell id="0" />
        <mxCell id="1" parent="0" />
        <mxCell id="382b91b5511bd0f7-1" value="" style="ellipse;html=1;shape=startState;fillColor=#000000;strokeColor=#ff0000;rounded=1;shadow=0;comic=0;labelBackgroundColor=none;fontFamily=Verdana;fontSize=12;fontColor=#000000;align=center;direction=south;" parent="1" vertex="1">
          <mxGeometry x="185" y="330" width="30" height="30" as="geometry" />
        </mxCell>
        <mxCell id="qHw43fdvEsDscST8Ym2Q-1" value="Start" style="text;html=1;strokeColor=none;fillColor=none;align=center;verticalAlign=middle;whiteSpace=wrap;rounded=0;" vertex="1" parent="1">
          <mxGeometry x="170" y="305" width="60" height="30" as="geometry" />
        </mxCell>
        <mxCell id="qHw43fdvEsDscST8Ym2Q-3" value="&lt;div&gt;Login&lt;/div&gt;&lt;div&gt;details&lt;/div&gt;&lt;div&gt;remembered?&lt;br&gt;&lt;/div&gt;" style="rhombus;whiteSpace=wrap;html=1;fontColor=#000000;fillColor=#ffffc0;strokeColor=#ff0000;" vertex="1" parent="1">
          <mxGeometry x="295" y="280" width="140" height="130" as="geometry" />
        </mxCell>
        <mxCell id="qHw43fdvEsDscST8Ym2Q-4" value="no" style="edgeStyle=orthogonalEdgeStyle;html=1;align=left;verticalAlign=bottom;endArrow=open;endSize=8;strokeColor=#b85450;rounded=0;fillColor=#f8cecc;" edge="1" source="qHw43fdvEsDscST8Ym2Q-3" parent="1" target="qHw43fdvEsDscST8Ym2Q-11">
          <mxGeometry x="-1" relative="1" as="geometry">
            <mxPoint x="475" y="345" as="targetPoint" />
          </mxGeometry>
        </mxCell>
        <mxCell id="qHw43fdvEsDscST8Ym2Q-5" value="yes" style="edgeStyle=orthogonalEdgeStyle;html=1;align=left;verticalAlign=top;endArrow=open;endSize=8;strokeColor=#ff0000;rounded=0;" edge="1" source="qHw43fdvEsDscST8Ym2Q-3" parent="1" target="qHw43fdvEsDscST8Ym2Q-8">
          <mxGeometry x="-1" relative="1" as="geometry">
            <mxPoint x="630" y="490" as="targetPoint" />
            <Array as="points">
              <mxPoint x="365" y="460" />
              <mxPoint x="365" y="460" />
            </Array>
          </mxGeometry>
        </mxCell>
        <mxCell id="qHw43fdvEsDscST8Ym2Q-6" value="" style="edgeStyle=orthogonalEdgeStyle;rounded=0;orthogonalLoop=1;jettySize=auto;html=1;fillColor=#f8cecc;strokeColor=#b85450;" edge="1" parent="1" source="382b91b5511bd0f7-1" target="qHw43fdvEsDscST8Ym2Q-3">
          <mxGeometry relative="1" as="geometry" />
        </mxCell>
        <mxCell id="qHw43fdvEsDscST8Ym2Q-7" value="&lt;h1&gt;Start scene&lt;br&gt;&lt;/h1&gt;&lt;p&gt;The start scene is loaded initially when the app is started.&amp;nbsp; It is responsible for loading initial game state, logging in the user, and loading game details from the server.&amp;nbsp; When it is finished, it loads the Character scene&lt;/p&gt;" style="text;html=1;strokeColor=none;fillColor=none;spacing=5;spacingTop=-20;whiteSpace=wrap;overflow=hidden;rounded=0;" vertex="1" parent="1">
          <mxGeometry x="20" y="20" width="280" height="140" as="geometry" />
        </mxCell>
        <mxCell id="qHw43fdvEsDscST8Ym2Q-19" style="edgeStyle=orthogonalEdgeStyle;rounded=0;orthogonalLoop=1;jettySize=auto;html=1;exitX=1;exitY=0.5;exitDx=0;exitDy=0;entryX=0.25;entryY=1;entryDx=0;entryDy=0;fillColor=#f8cecc;strokeColor=#b85450;" edge="1" parent="1" source="qHw43fdvEsDscST8Ym2Q-8" target="qHw43fdvEsDscST8Ym2Q-11">
          <mxGeometry relative="1" as="geometry" />
        </mxCell>
        <mxCell id="qHw43fdvEsDscST8Ym2Q-38" value="&lt;div&gt;AutoLogin&lt;/div&gt;&lt;div&gt;failed&lt;br&gt;&lt;/div&gt;" style="edgeLabel;html=1;align=center;verticalAlign=middle;resizable=0;points=[];" vertex="1" connectable="0" parent="qHw43fdvEsDscST8Ym2Q-19">
          <mxGeometry x="-0.5652" relative="1" as="geometry">
            <mxPoint as="offset" />
          </mxGeometry>
        </mxCell>
        <mxCell id="qHw43fdvEsDscST8Ym2Q-34" style="edgeStyle=orthogonalEdgeStyle;rounded=0;orthogonalLoop=1;jettySize=auto;html=1;fillColor=#f8cecc;strokeColor=#b85450;" edge="1" parent="1" source="qHw43fdvEsDscST8Ym2Q-8" target="qHw43fdvEsDscST8Ym2Q-27">
          <mxGeometry relative="1" as="geometry">
            <Array as="points">
              <mxPoint x="365" y="560" />
            </Array>
          </mxGeometry>
        </mxCell>
        <mxCell id="qHw43fdvEsDscST8Ym2Q-42" value="&lt;div&gt;AutoLogin&lt;/div&gt;&lt;div&gt;success&lt;br&gt;&lt;/div&gt;" style="edgeLabel;html=1;align=center;verticalAlign=middle;resizable=0;points=[];" vertex="1" connectable="0" parent="qHw43fdvEsDscST8Ym2Q-34">
          <mxGeometry x="-0.0105" y="1" relative="1" as="geometry">
            <mxPoint as="offset" />
          </mxGeometry>
        </mxCell>
        <mxCell id="qHw43fdvEsDscST8Ym2Q-8" value="AutoLogin" style="rounded=1;whiteSpace=wrap;html=1;arcSize=40;fontColor=#000000;fillColor=#ffffc0;strokeColor=#ff0000;" vertex="1" parent="1">
          <mxGeometry x="305" y="470" width="120" height="60" as="geometry" />
        </mxCell>
        <mxCell id="qHw43fdvEsDscST8Ym2Q-23" style="edgeStyle=orthogonalEdgeStyle;rounded=0;orthogonalLoop=1;jettySize=auto;html=1;exitX=0.75;exitY=0;exitDx=0;exitDy=0;entryX=0.75;entryY=1;entryDx=0;entryDy=0;fillColor=#f8cecc;strokeColor=#b85450;" edge="1" parent="1" source="qHw43fdvEsDscST8Ym2Q-11" target="qHw43fdvEsDscST8Ym2Q-21">
          <mxGeometry relative="1" as="geometry" />
        </mxCell>
        <mxCell id="qHw43fdvEsDscST8Ym2Q-25" value="Register" style="edgeLabel;html=1;align=center;verticalAlign=middle;resizable=0;points=[];" vertex="1" connectable="0" parent="qHw43fdvEsDscST8Ym2Q-23">
          <mxGeometry x="-0.1059" y="1" relative="1" as="geometry">
            <mxPoint y="-7" as="offset" />
          </mxGeometry>
        </mxCell>
        <mxCell id="qHw43fdvEsDscST8Ym2Q-11" value="ManualLogin" style="rounded=1;whiteSpace=wrap;html=1;arcSize=40;fontColor=#000000;fillColor=#ffffc0;strokeColor=#ff0000;" vertex="1" parent="1">
          <mxGeometry x="500" y="315" width="120" height="60" as="geometry" />
        </mxCell>
        <mxCell id="qHw43fdvEsDscST8Ym2Q-20" style="edgeStyle=orthogonalEdgeStyle;rounded=0;orthogonalLoop=1;jettySize=auto;html=1;exitX=0.75;exitY=1;exitDx=0;exitDy=0;entryX=0.25;entryY=1;entryDx=0;entryDy=0;fillColor=#f8cecc;strokeColor=#b85450;" edge="1" parent="1" source="qHw43fdvEsDscST8Ym2Q-11" target="qHw43fdvEsDscST8Ym2Q-11">
          <mxGeometry relative="1" as="geometry">
            <Array as="points">
              <mxPoint x="590" y="500" />
              <mxPoint x="530" y="500" />
            </Array>
          </mxGeometry>
        </mxCell>
        <mxCell id="qHw43fdvEsDscST8Ym2Q-37" value="&lt;div&gt;Login&lt;/div&gt;&lt;div&gt;failed&lt;br&gt;&lt;/div&gt;" style="edgeLabel;html=1;align=center;verticalAlign=middle;resizable=0;points=[];" vertex="1" connectable="0" parent="qHw43fdvEsDscST8Ym2Q-20">
          <mxGeometry x="-0.6323" y="1" relative="1" as="geometry">
            <mxPoint as="offset" />
          </mxGeometry>
        </mxCell>
        <mxCell id="qHw43fdvEsDscST8Ym2Q-24" style="edgeStyle=orthogonalEdgeStyle;rounded=0;orthogonalLoop=1;jettySize=auto;html=1;exitX=0.25;exitY=1;exitDx=0;exitDy=0;entryX=0.25;entryY=0;entryDx=0;entryDy=0;fillColor=#f8cecc;strokeColor=#b85450;" edge="1" parent="1" source="qHw43fdvEsDscST8Ym2Q-21" target="qHw43fdvEsDscST8Ym2Q-11">
          <mxGeometry relative="1" as="geometry" />
        </mxCell>
        <mxCell id="qHw43fdvEsDscST8Ym2Q-26" value="&lt;div&gt;Register&lt;/div&gt;&lt;div&gt;success&lt;/div&gt;&lt;div&gt;or&lt;/div&gt;&lt;div&gt;cancel&lt;br&gt;&lt;/div&gt;" style="edgeLabel;html=1;align=center;verticalAlign=middle;resizable=0;points=[];" vertex="1" connectable="0" parent="qHw43fdvEsDscST8Ym2Q-24">
          <mxGeometry x="-0.1529" y="1" relative="1" as="geometry">
            <mxPoint y="4" as="offset" />
          </mxGeometry>
        </mxCell>
        <mxCell id="qHw43fdvEsDscST8Ym2Q-33" style="edgeStyle=orthogonalEdgeStyle;rounded=0;orthogonalLoop=1;jettySize=auto;html=1;fillColor=#f8cecc;strokeColor=#b85450;" edge="1" parent="1" source="qHw43fdvEsDscST8Ym2Q-11" target="qHw43fdvEsDscST8Ym2Q-27">
          <mxGeometry relative="1" as="geometry">
            <Array as="points">
              <mxPoint x="680" y="345" />
            </Array>
          </mxGeometry>
        </mxCell>
        <mxCell id="qHw43fdvEsDscST8Ym2Q-39" value="&lt;div&gt;Login&lt;/div&gt;&lt;div&gt;success&lt;br&gt;&lt;/div&gt;" style="edgeLabel;html=1;align=center;verticalAlign=middle;resizable=0;points=[];" vertex="1" connectable="0" parent="qHw43fdvEsDscST8Ym2Q-33">
          <mxGeometry x="0.2163" relative="1" as="geometry">
            <mxPoint as="offset" />
          </mxGeometry>
        </mxCell>
        <mxCell id="qHw43fdvEsDscST8Ym2Q-21" value="NewUser" style="rounded=1;whiteSpace=wrap;html=1;arcSize=40;fontColor=#000000;fillColor=#ffffc0;strokeColor=#ff0000;" vertex="1" parent="1">
          <mxGeometry x="500" y="170" width="120" height="60" as="geometry" />
        </mxCell>
        <mxCell id="qHw43fdvEsDscST8Ym2Q-45" style="edgeStyle=orthogonalEdgeStyle;rounded=0;orthogonalLoop=1;jettySize=auto;html=1;fillColor=#f8cecc;strokeColor=#b85450;" edge="1" parent="1" source="qHw43fdvEsDscST8Ym2Q-27" target="qHw43fdvEsDscST8Ym2Q-43">
          <mxGeometry relative="1" as="geometry">
            <Array as="points">
              <mxPoint x="650" y="610" />
              <mxPoint x="650" y="610" />
            </Array>
          </mxGeometry>
        </mxCell>
        <mxCell id="qHw43fdvEsDscST8Ym2Q-46" value="&lt;div&gt;No&lt;/div&gt;&lt;div&gt;games&lt;br&gt;&lt;/div&gt;" style="edgeLabel;html=1;align=center;verticalAlign=middle;resizable=0;points=[];" vertex="1" connectable="0" parent="qHw43fdvEsDscST8Ym2Q-45">
          <mxGeometry x="-0.1667" y="-2" relative="1" as="geometry">
            <mxPoint y="5" as="offset" />
          </mxGeometry>
        </mxCell>
        <mxCell id="qHw43fdvEsDscST8Ym2Q-27" value="LoadGame" style="rounded=1;whiteSpace=wrap;html=1;arcSize=40;fontColor=#000000;fillColor=#ffffc0;strokeColor=#ff0000;" vertex="1" parent="1">
          <mxGeometry x="620" y="530" width="120" height="60" as="geometry" />
        </mxCell>
        <mxCell id="qHw43fdvEsDscST8Ym2Q-47" style="edgeStyle=orthogonalEdgeStyle;rounded=0;orthogonalLoop=1;jettySize=auto;html=1;exitX=0.75;exitY=0;exitDx=0;exitDy=0;entryX=0.75;entryY=1;entryDx=0;entryDy=0;fillColor=#f8cecc;strokeColor=#b85450;" edge="1" parent="1" source="qHw43fdvEsDscST8Ym2Q-43" target="qHw43fdvEsDscST8Ym2Q-27">
          <mxGeometry relative="1" as="geometry" />
        </mxCell>
        <mxCell id="qHw43fdvEsDscST8Ym2Q-48" value="&lt;div&gt;CreateGame&lt;/div&gt;&lt;div&gt;success&lt;br&gt;&lt;/div&gt;" style="edgeLabel;html=1;align=center;verticalAlign=middle;resizable=0;points=[];" vertex="1" connectable="0" parent="qHw43fdvEsDscST8Ym2Q-47">
          <mxGeometry y="-1" relative="1" as="geometry">
            <mxPoint as="offset" />
          </mxGeometry>
        </mxCell>
        <mxCell id="qHw43fdvEsDscST8Ym2Q-43" value="CreateGame" style="rounded=1;whiteSpace=wrap;html=1;arcSize=40;fontColor=#000000;fillColor=#ffffc0;strokeColor=#ff0000;" vertex="1" parent="1">
          <mxGeometry x="620" y="650" width="120" height="40" as="geometry" />
        </mxCell>
        <mxCell id="qHw43fdvEsDscST8Ym2Q-49" value="" style="ellipse;html=1;shape=endState;fillColor=#000000;strokeColor=#ff0000;" vertex="1" parent="1">
          <mxGeometry x="820" y="545" width="30" height="30" as="geometry" />
        </mxCell>
        <mxCell id="qHw43fdvEsDscST8Ym2Q-50" value="" style="edgeStyle=orthogonalEdgeStyle;rounded=0;orthogonalLoop=1;jettySize=auto;html=1;fillColor=#f8cecc;strokeColor=#b85450;" edge="1" parent="1" source="qHw43fdvEsDscST8Ym2Q-27" target="qHw43fdvEsDscST8Ym2Q-49">
          <mxGeometry relative="1" as="geometry" />
        </mxCell>
        <mxCell id="qHw43fdvEsDscST8Ym2Q-52" value="&lt;div&gt;LoadGame&lt;/div&gt;&lt;div&gt;success&lt;br&gt;&lt;/div&gt;" style="edgeLabel;html=1;align=center;verticalAlign=middle;resizable=0;points=[];" vertex="1" connectable="0" parent="qHw43fdvEsDscST8Ym2Q-50">
          <mxGeometry x="0.075" relative="1" as="geometry">
            <mxPoint x="-9" as="offset" />
          </mxGeometry>
        </mxCell>
        <mxCell id="qHw43fdvEsDscST8Ym2Q-51" value="&lt;div&gt;To Character&lt;/div&gt;&lt;div&gt;Scene&lt;br&gt;&lt;/div&gt;" style="text;html=1;strokeColor=none;fillColor=none;align=center;verticalAlign=middle;whiteSpace=wrap;rounded=0;" vertex="1" parent="1">
          <mxGeometry x="850" y="545" width="60" height="30" as="geometry" />
        </mxCell>
      </root>
    </mxGraphModel>
  </diagram>
</mxfile>
